<svg xmlns="http://www.w3.org/2000/svg" viewBox="0 0 36 68" id="Bishop"><path fill-rule="evenodd" d="M0 66a2 2 0 0 0 2 2h32a2 2 0 0 0 2-2v-2.5a5.5 5.5 0 0 0-5.495-5.5H5.495A5.502 5.502 0 0 0 0 63.5V66zm25.68-38.117c.098-.098.59-.575.734-.719C28.136 25.443 29 23.714 29 21c0-3.221-1.3-6.106-3.485-8.671-1.2-1.41-2.747-2.687-2.747-2.687C23.494 8.432 24 7.056 24 6c0-3.866-3-6-6-6s-6 2.134-6 6c0 1.64 1.226 3.633 1.226 3.633a24.572 24.572 0 0 0-1.92 1.788c.122.518.263 1.025.422 1.502.273.82.58 1.478.885 1.895.341.465.787.977 1.31 1.513a26.918 26.918 0 0 0 2.316 2.099 2 2 0 0 1-2.478 3.14 30.846 30.846 0 0 1-2.698-2.444 18.3 18.3 0 0 1-1.676-1.944 9.143 9.143 0 0 1-.993-1.778C7.497 17.144 7 19.007 7 21c0 2.714.864 4.443 2.586 6.164.144.144.636.62.734.719l.116.117h15.128l.116-.117zm2.717 21.735C28.913 51.164 30.002 54 30.002 54l-23.999-.004s1.086-2.837 1.6-4.378C9.37 44.313 10.549 37.017 10.894 32h14.212c.345 5.017 1.523 12.313 3.291 17.618z" fill="#000000" class="color000000 svgShape"></path></svg>