<svg xmlns="http://www.w3.org/2000/svg" enable-background="new 0 0 135 135" viewBox="0 0 135 135" id="robot"><path fill="#a3baf2" d="M93.52531,35.17436l11.99874,11.03447c0.59586,0.54797,0.93494,1.32048,0.93494,2.13v10.63913
				c0,1.20668-0.74878,2.28669-1.8788,2.70993l-12.64185,4.73486L93.52531,35.17436z"></path><path fill="#fad014" d="M113.11973 53.32668c0 2.29021 1.85175 4.14202 4.13399 4.14202 2.29036 0 4.14217-1.8518 4.14217-4.14202 0-2.28228-1.85181-4.13409-4.14217-4.13409C114.97148 49.19259 113.11973 51.0444 113.11973 53.32668zM29.97536 53.32668c0 2.29021-1.85175 4.14202-4.13399 4.14202-2.29036 0-4.14217-1.8518-4.14217-4.14202 0-2.28228 1.8518-4.13409 4.14217-4.13409C28.12361 49.19259 29.97536 51.0444 29.97536 53.32668z"></path><path fill="#5b58cf" d="M123.87827,112.24909c-0.02705-0.06477-0.05433-0.1293-0.08185-0.19357
				c-2.68189-6.26395-8.75596-10.40863-15.55142-10.90993l-9.3149-0.68715c-1.17991-0.08704-2.18474-0.89091-2.52865-2.02295
				l-1.03389-3.40321c-1.13502-3.73611-4.58025-6.29017-8.48497-6.29017H39.51223c-4.89617,0-8.86531,3.9691-8.86536,8.86527
				v0.00002c-0.00002,1.64245-1.3831,2.96061-3.02219,2.85555c-12.78963-0.8198-19.55077,4.28458-22.73749,12.90156
				c-0.95845,2.59167-1.36912,5.35474-1.36911,8.11797v0.00002c0,5.25563,4.26054,9.51616,9.51617,9.51616h112.52441
				l0.00024-9.78707C125.55898,118.14574,125.05965,115.07817,123.87827,112.24909z"></path><path fill="#5b58cf" d="M58.40161,130.0995c-0.29254,0.37085-0.41804,0.52995-0.71058,0.9008l-44.65962,0.00002
					c-5.25563,0-9.51616-4.26053-9.51617-9.51616v-0.14599c0-2.95589,0.52507-5.89783,1.62931-8.63971
					c0.10871-0.26993,0.22043-0.53519,0.33518-0.79743c0.08932-0.20832,0.17858-0.41688,0.27784-0.61526
					c0.12893-0.26791,0.25791-0.52588,0.3869-0.77393c0.11906-0.22818,0.23811-0.44643,0.3671-0.67461
					c0.49609-0.88317,1.0517-1.7065,1.65697-2.48043c0.15872-0.18845,0.30757-0.37691,0.46629-0.55567
					c0.15878-0.18845,0.3175-0.36697,0.48615-0.5455c0.32743-0.35728,0.67467-0.69471,1.04177-1.0222
					c0.53581-0.48592,1.11129-0.94252,1.72643-1.35915c0.00987-0.00993,0.00987-0.00993,0.0198-0.01986
					c0.20838-0.1388,0.40682-0.26791,0.61514-0.39677c0.21831-0.13904,0.43656-0.26791,0.65487-0.38708
					c0.79372-0.44643,1.64698-0.8432,2.55982-1.19056c0.15872-0.05959,0.32737-0.11918,0.49609-0.17852
					c0.19839-0.06953,0.40676-0.13905,0.62501-0.20856c0.20838-0.06927,0.42669-0.12887,0.65487-0.18845
					c0.24804-0.06927,0.51595-0.13879,0.78379-0.19839c0.32743-0.07921,0.6648-0.14873,1.0021-0.21825h0.00993
					c0.6846-0.12887,1.38906-0.23811,2.12326-0.32749h0.08926c0.35723-0.03973,0.71439-0.06928,1.08149-0.09908
					c1.47832-0.09931,3.0559-0.10925,4.73268-0.00993c0.13886,0.24805,0.25791,0.47623,0.3869,0.68454
					c1.07156,1.79589,2.13319,3.60147,3.20475,5.39735c1.21042,2.034,6.04229,9.14803,7.41149,10.10048
					c2.22245,1.57739,5.17916,1.4386,7.86791,1.94462C52.01751,119.68936,56.85957,124.43923,58.40161,130.0995z"></path><path fill="#70dbe0" d="M130.21255,112.24909c-0.02704-0.06477-0.05434-0.1293-0.08185-0.19357
				c-2.68189-6.26395-8.75596-10.40863-15.55141-10.90993l-9.3149-0.68715c-1.17991-0.08704-2.18474-0.89091-2.52865-2.02295
				l-1.03388-3.40321c-1.13503-3.73611-4.58025-6.29017-8.48497-6.29017H45.84652c-4.89617,0-8.86531,3.9691-8.86536,8.86527
				v0.00002c-0.00002,1.64245-1.3831,2.96061-3.02219,2.85555c-12.78963-0.8198-19.55077,4.28458-22.73749,12.90156
				c-0.95845,2.59167-1.36912,5.35474-1.36911,8.11797v0.00002c0,5.25563,4.26054,9.51616,9.51617,9.51616h112.52441
				l0.00024-9.78707C131.89326,118.14574,131.39394,115.07817,130.21255,112.24909z"></path><path fill="#a2e55a" d="M64.35464 130.0995c-.29254.37085-.41804.52995-.71058.9008l-44.65962.00002c-5.25563 0-9.51616-4.26053-9.51617-9.51616v-.14599c0-2.95589.52507-5.89783 1.62931-8.63971.10871-.26993.22043-.53519.33518-.79743.08932-.20832.17858-.41688.27784-.61526.12893-.26791.25791-.52588.3869-.77393.11906-.22818.23811-.44643.3671-.67461.49609-.88317 1.0517-1.7065 1.65697-2.48043.15872-.18845.30757-.37691.46629-.55567.15878-.18845.3175-.36697.48615-.5455.32743-.35728.67467-.69471 1.04177-1.0222.53581-.48592 1.11129-.94252 1.72643-1.35915.00987-.00993.00987-.00993.0198-.01986.20838-.1388.40682-.26791.61514-.39677.21831-.13904.43656-.26791.65487-.38708.79372-.44643 1.64698-.8432 2.55982-1.19056.15872-.05959.32737-.11918.49609-.17852.19839-.06953.40676-.13905.62501-.20856.20838-.06927.42669-.12887.65487-.18845.24804-.06927.51595-.13879.78379-.19839.32743-.07921.6648-.14873 1.0021-.21825h.00993c.6846-.12887 1.38906-.23811 2.12326-.32749h.08926c.35723-.03973.7144-.06928 1.08149-.09908 1.47832-.09931 3.0559-.10925 4.73268-.00993.13886.24805.25791.47623.3869.68454 1.07156 1.79589 2.13319 3.60147 3.20475 5.39735 1.21042 2.034 6.04229 9.14803 7.41149 10.10048 2.22245 1.57739 5.17916 1.4386 7.86791 1.94462C57.97053 119.68936 62.8126 124.43923 64.35464 130.0995zM131.51521 121.15269l.00003 7.70837c0 1.18147-.95778 2.13925-2.13925 2.13925l-57.77332-.00002c-1.34811-2.20586 6.82441-1.97696 5.4763-4.18282 2.22405-4.14134 6.25884-7.34896 10.88988-8.23916 2.67887-.50602 5.64545-.36723 7.87784-1.94462 1.34934-.95245 6.19114-8.06647 7.40156-10.10048 1.07156-1.79588 2.14312-3.60146 3.21468-5.39735.0992-.16859.19839-.34735.29764-.5358l6.71925.60369c4.51689.40582 8.79941 2.20304 12.26041 5.13365.82323.69707 1.98492 2.00164 2.12378 2.20995.00993.00993.01986.02979.01986.03973.18852.27784 1.0815 1.81575 1.23029 2.12314l.17859.35729c.1687.33743.31749.67461.46634 1.03189.02974.04966.04961.09908.06947.14874.00992.01986.00992.02979.01979.04965.07393.17252.14296.34741.20952.52477C131.0558 115.4816 131.51521 118.31257 131.51521 121.15269z"></path><path fill="#fad014" d="M83.21374,118.28807c0,7.01685-5.69534,12.71225-12.72237,12.71225
					c-7.02697,0-12.72232-5.6954-12.72232-12.71225c0-7.02685,5.69534-12.72225,12.72232-12.72225
					C77.5184,105.56582,83.21374,111.26122,83.21374,118.28807z"></path><path fill="#fff" d="M70.4915,122.77574c-2.48042,0-4.49842-2.0126-4.49842-4.48664c0-2.4809,2.01801-4.49842,4.49842-4.49842
					s4.49842,2.01752,4.49842,4.49842C74.98992,120.76314,72.97192,122.77574,70.4915,122.77574z"></path><path fill="#e2f2ff" d="M87.08462,78.21503v10.75758c0,9.16418-7.42903,16.59321-16.59321,16.59321h-0.00003
				c-9.16418,0-16.59321-7.42903-16.59321-16.59321V78.21503H87.08462z"></path><path fill="#a3baf2" d="M49.62395,35.20745L37.56158,46.17231c-0.59902,0.54452-0.94257,1.31505-0.94725,2.12455l-0.06155,10.63895
				c-0.00698,1.20666,0.73553,2.29099,1.86309,2.72075l12.61424,4.80791L49.62395,35.20745z"></path><path fill="#e2f2ff" d="M95.5104,41.62557c-1.33591,5.65113-1.89841,11.13532-1.77535,16.94458
				c0.0176,1.02822,0.06153,2.05665,0.12306,3.10247c0.32518,5.27327-1.17773,10.55533-4.35926,14.77399
				c-0.11426,0.14935-0.23731,0.30748-0.36031,0.46584c-1.89841,2.40812-4.14833,4.30642-6.60039,5.70391
				c-7.29468,4.19226-16.39989,3.99894-23.46605-0.18453c-3.71764-2.1972-6.86404-5.50179-8.89424-9.8524
				c-0.04393-0.09656-0.08792-0.20213-0.14065-0.30748c-1.51165-3.33099-2.10048-7.00463-1.91595-10.66949
				c0.04393-0.95805,0.07912-1.95988,0.07912-2.98832c0.04393-6.20493-0.68555-13.3853-2.0566-19.16838
				c-0.41305-1.75776-0.64156-3.5595-0.63277-5.36103c0.08787-12.64718,6.67945-17.70952,21.60284-19.65181
				c1.71377-0.21972,3.46272-0.25491,5.17654-0.07016c9.74679,0.99303,17.61414,3.18026,21.61302,10.39581
				C96.51371,29.47825,96.7496,36.36968,95.5104,41.62557z"></path><path fill="#a3baf2" d="M82.64307,12.64596v14.31973c0.00001,6.53337-5.29633,11.82971-11.8297,11.82971h-0.00002
				c-6.53336,0-11.82971-5.29634-11.82971-11.8297V12.64596c0-0.89858,0.61784-1.69262,1.49603-1.88297
				c6.88911-1.49323,13.77827-1.49323,20.66738,0C82.02524,10.95334,82.64307,11.74738,82.64307,12.64596z"></path><path fill="#fb961d" d="M75.49684 8.68423v17.87826c0 2.58661-2.09686 4.68348-4.68348 4.68348h-.00001c-2.58662 0-4.68348-2.09687-4.68348-4.68348V8.68423c0-2.58662 2.09686-4.68348 4.68348-4.68348h.00001C73.39998 4.00075 75.49684 6.09761 75.49684 8.68423zM63.34875 49.09476c0 2.15342-1.74016 3.90217-3.89342 3.90217-2.16201 0-3.90222-1.74874-3.90222-3.90217 0-2.15321 1.74022-3.90217 3.90222-3.90217C61.60859 45.19259 63.34875 46.94155 63.34875 49.09476zM86.07361 49.09476c0 2.15342-1.74016 3.90217-3.89342 3.90217-2.16201 0-3.90222-1.74874-3.90222-3.90217 0-2.15321 1.74021-3.90217 3.90222-3.90217C84.33345 45.19259 86.07361 46.94155 86.07361 49.09476z"></path><path fill="#fad014" d="M59.37088 73.42332c-.05273 2.42571-.1142 4.84263-.17573 7.25954-.01759.57999-.02639 1.17757-.12305 1.74896-3.71764-2.1972-6.86404-5.50179-8.89424-9.8524-.04393-.09656-.08792-.20213-.14065-.30748-1.51165-3.33099-2.10048-7.00463-1.91595-10.66949.04393-.95805.07912-1.95988.07912-2.98832 1.13374.17574 2.24113.45704 3.32213.86129 3.1376 1.18657 5.93243 3.5419 7.10135 6.68835C59.48514 68.45753 59.43241 70.98002 59.37088 73.42332zM89.49885 76.44661c-.11426.14935-.23731.30748-.36031.46584-1.89841 2.40812-4.14833 4.30642-6.60039 5.70391-.12305-.63277-.14065-1.29192-.15819-1.93349-.05273-2.41691-.11426-4.83382-.17579-7.25954-.06152-2.44331-.10546-4.96579.74702-7.25954 1.16892-3.14645 3.97255-5.50179 7.11015-6.68835 1.18646-.44824 2.41691-.73834 3.6737-.90527.0176 1.02822.06153 2.05665.12306 3.10247C94.18329 66.94588 92.68038 72.22795 89.49885 76.44661z"></path><path fill="#402da3" d="M132.5153,121.15283c0-0.02734-0.00293-0.05322-0.00299-0.08057
				c-0.00116-0.38232-0.0094-0.75781-0.02808-1.13281c-0.13779-5.24256-2.15828-10.16125-5.11431-13.39795
				c-3.27429-3.66455-7.91699-6.00488-13.0957-6.39209l-7.38-0.5498h-0.12l-1.82001-0.14014
				c-0.76001-0.0498-1.41998-0.57959-1.64001-1.31006l-1.03998-3.40967c-1.27002-4.18018-5.06-7-9.44-7h-4.74957v-8.14063
				c0.04987-0.04004,0.09967-0.08936,0.13959-0.13965c0.01709-0.01709,0.03119-0.03418,0.0481-0.05127
				c3.25246-3.365,5.41255-7.4821,6.33191-12.53857c0-0.01025,0-0.01025,0-0.02002c0.00995-0.0498,0.01996-0.1001,0.01996-0.1499
				c0.01001-0.04004,0.02002-0.06982,0.02002-0.10986c0-0.01025,0-0.01025,0-0.02002
				c0.01001-0.03027,0.01001-0.07031,0.02002-0.1001l0.00006-0.00049l10.26654-3.84473
				c1.51221-0.56641,2.52832-2.03125,2.52832-3.64648v-5.00391h4.71594c0.30206,2.52783,2.47064,4.49561,5.0791,4.49561
				c2.83002,0,5.14001-2.31006,5.14001-5.14014s-2.31-5.14014-5.14001-5.14014c-2.35999,0-4.34998,1.61035-4.95001,3.78027
				c-0.00037,0.00146-0.00049,0.00293-0.00085,0.00439h-4.84418v-3.63477c0-1.08496-0.4585-2.12988-1.2583-2.86719l-9.03662-8.31006
				v-0.00244l0.00165-0.04785c0.03754-0.58643,0.05841-1.18555,0.06219-1.79443l0.00616-0.17773
				c0-0.09277-0.00562-0.1875-0.00659-0.28027c-0.07898-9.14484-3.90096-15.33922-12.25342-18.82959c-0.01001,0-0.01001,0-0.01001,0
				c-0.44-0.17041-0.88-0.33008-1.32001-0.47998v-2.90039c0-1.36963-0.96002-2.57959-2.28998-2.85986
				c-1.61005-0.35986-3.24005-0.62012-4.86005-0.7998V8.67969c0-3.12988-2.54999-5.68018-5.67999-5.68018
				s-5.67999,2.55029-5.67999,5.68018v0.31006c-1.63,0.18994-3.25,0.43994-4.87,0.7998
				c-1.32001,0.28027-2.27997,1.49023-2.27997,2.85986v2.67041c-1.07001,0.33984-2.08002,0.70996-3.01001,1.12988
				c-0.13531,0.06104-0.25665,0.12842-0.38916,0.19043c-7.82509,3.62224-10.6492,10.40126-10.00592,19.17188
				c0.0058,0.08301,0.00903,0.16309,0.01508,0.24756c0.00873,0.12256,0.02673,0.24805,0.03931,0.37109
				c0.03741,0.37402,0.08569,0.74951,0.14142,1.12695c0.0166,0.11719,0.03033,0.23438,0.04926,0.35205
				c0.00232,0.021,0.0083,0.03955,0.0116,0.06055c0.0116,0.07031,0.0188,0.13965,0.03101,0.20996l-7.97797,7.25195
				c-0.8042,0.73145-1.26855,1.77344-1.27441,2.85938l-0.0213,3.68262H30.7951c-0.00037-0.00146-0.00049-0.00293-0.00085-0.00439
				c-0.60004-2.16992-2.59003-3.78027-4.95001-3.78027c-2.84003,0-5.14001,2.31006-5.14001,5.14014s2.29999,5.14014,5.14001,5.14014
				c2.60846,0,4.77704-1.96777,5.07904-4.49561h4.65833l-0.02869,4.95605c-0.00977,1.61426,0.99756,3.08594,2.50684,3.66113
				l9.23853,3.521c0.62063,4.84872,2.8808,9.48895,5.22595,12.02734c0.10999,0.14014,0.22998,0.29004,0.37,0.43018v0.00977
				c0.00098,0.00146,0.00293,0.00244,0.00391,0.00439v9.15576h-7.4339h-5.95001c-5.44,0-9.87,4.42969-9.87,9.86963
				c0,0.52051-0.21002,1-0.59003,1.36035c-0.37,0.3501-0.85999,0.54004-1.37,0.5c-0.07996-0.01025-0.16998-0.01025-0.25-0.01025
				c-0.01001-0.00977-0.01996-0.00977-0.02997,0c0,0,0-0.00977-0.01001-0.00977c-0.09998-0.01025-0.17999-0.01025-0.28003-0.01025
				c-0.10999-0.00977-0.21997-0.00977-0.31995-0.00977c-0.27002-0.02002-0.54004-0.03027-0.80005-0.03027
				c-0.65302-0.03645-1.66159-0.01437-2.25,0c-0.16998,0.01025-0.32996,0.01025-0.48999,0.02002
				c-2.89435,0.1746-5.13794,0.62922-6.67029,1.11182c-0.00067,0-0.00134,0.00049-0.00201,0.00049
				c-0.00867,0.00293-0.0191,0.00537-0.02771,0.00781c-3.09329,0.98189-5.8672,2.58595-8.08685,4.95459
				c-0.0235,0.02539-0.04993,0.05029-0.07312,0.07568c-0.17999,0.18994-0.34998,0.37988-0.51001,0.56982
				c-0.83489,0.9118-1.55418,2.0746-1.84998,2.54004c-0.12,0.20996-0.25,0.41016-0.37,0.62988
				c-5.86232,9.37971-3.73776,22.68994,7.36999,22.68994h5.95001h38.70996h5.95001h7.95099
				c0.00256,0,0.00494,0.00098,0.00751,0.00098h57.77343c0.0033,0,0.00635-0.00098,0.00964-0.00098h2.12842c0.54999,0,1-0.44971,1-1
				v-2.12793c0-0.00342,0.0011-0.00684,0.0011-0.01074V121.15283z M117.2542,50.18945c1.73004,0,3.14001,1.41016,3.14001,3.14014
				s-1.40997,3.14014-3.14001,3.14014c-1.72998,0-3.13-1.41016-3.13-3.14014S115.52422,50.18945,117.2542,50.18945z
				 M25.84423,56.46973c-1.73999,0-3.14001-1.41016-3.14001-3.14014s1.40002-3.14014,3.14001-3.14014
				c1.72998,0,3.13,1.41016,3.13,3.14014S27.57421,56.46973,25.84423,56.46973z M129.38097,129.99951H88.8742H77.61419
				c3.16541-1.92676,5.48236-5.09131,6.28571-8.81396c1.33295-0.76953,2.76257-1.33789,4.25458-1.62451
				c2.6745-0.50427,5.79018-0.35893,8.26904-2.11035c1.604-1.13184,6.625-8.62695,7.68359-10.4043l3.21143-5.39258l6.07178,0.5459
				c10.9757,0.98756,17.07813,8.37493,17.12103,18.84277c0.00018,0.03564,0.00287,0.07129,0.00287,0.10693v7.7168
				C130.51103,129.48975,130.00468,129.99658,129.38097,129.99951z M58.76421,118.28955
				c0-6.45996,5.26001-11.71973,11.72998-11.71973c6.46002,0,11.72003,5.25977,11.72003,11.71973
				s-5.26001,11.70996-11.72003,11.70996C64.02422,129.99951,58.76421,124.74951,58.76421,118.28955z M49.10271,63.40137
				c-0.02905-1.34575,0.06152-2.59889,0.06152-2.7417v-0.02979c0.00995-0.1001,0.00995-0.21045,0.00995-0.31006
				c0-0.1153,0.00364-0.19439,0.01031-0.5c0.68988,0.15967,1.34985,0.34961,1.97974,0.58984
				c3.09998,1.16992,5.53998,3.44971,6.51996,6.10986c0.60004,1.57031,0.72003,3.30029,0.72003,5.03027
				c0,0.61963-0.01001,1.23975-0.03003,1.84961c-0.00385,0.15575-0.05637,2.28405-0.17999,7.26025
				C52.72411,76.77805,49.26088,70.67693,49.10271,63.40137z M55.18792,18.58203c0.14014-0.06787,0.27911-0.13672,0.42352-0.20215
				c0.73853-0.33691,1.53229-0.64551,2.3728-0.93262v9.52246c0,6.72949,5.21942,12.2793,11.82892,12.77979v19.18359
				c0,0.55273,0.44775,1,1,1s1-0.44727,1-1V39.74951c0.00037,0,0.00067,0,0.00104,0c6.60999-0.5,11.83002-6.0498,11.83002-12.77979
				v-9.28125c0.31039,0.11444,0.76785,0.28203,1.11157,0.43066c8.12834,3.45152,10.97161,10.252,10.40344,18.96289
				c-0.10089,1.54102-0.31616,3.0127-0.625,4.31738c-0.17128,0.68552-0.31818,1.45291-0.35565,1.62598
				c-0.06073,0.2876-0.12067,0.5752-0.17755,0.86279c-0.00494,0.02686-0.01196,0.05469-0.01678,0.08154
				c-0.11005,0.52979-0.21002,1.06982-0.30005,1.6001c-0.56372,3.44503-0.89004,6.46182-0.95068,10.3374
				c-0.00696,0.43652-0.00775,0.875-0.00671,1.31445c0.00055,0.16602-0.00427,0.33105-0.00256,0.49805
				c-1.06,0.18994-2.07001,0.46973-3.02002,0.81982c-3.69,1.3999-6.48999,4.05029-7.69,7.28027
				c-0.94,2.52002-0.87,5.22998-0.81,7.62988v0.18018c0.06,2.35986,0.12,4.71973,0.17999,7.08984
				c0.00995,0.43652,0.02026,0.8833,0.06927,1.34033c-6.34179,3.37153-14.24725,3.50936-20.95154,0.01416
				c-0.12006-0.06348-0.23865-0.12988-0.35767-0.1958c0.02979-0.33984,0.03992-0.66943,0.04993-0.99854v-0.17041
				c0.06-2.41992,0.12-4.83984,0.17999-7.25977c0.06-2.41016,0.13-5.12988-0.81-7.62988c-1.20001-3.24023-4-5.89014-7.69-7.28027
				c-0.84998-0.31982-1.75-0.56982-2.66998-0.75977c0-0.1001,0-0.2002-0.01001-0.30029c0-0.18359-0.0069-0.37012-0.00836-0.55469
				c-0.09511-6.58827-0.98701-13.14491-2.06848-17.70752c-0.22736-0.96729-0.38477-1.92578-0.4845-2.87158
				C45.8217,28.53445,48.13784,21.97842,55.18792,18.58203z M86.67474,78.1709c-0.69068,0.69842-1.10766,1.06232-1.52618,1.40332
				c-0.39435,0.3291-0.79547,0.64941-1.21179,0.94873c-0.03705,0.02539-0.07159,0.05127-0.11255,0.07666
				c-0.10425,0.08203-0.21643,0.15234-0.32764,0.22314c-0.03662,0.0249-0.07556,0.04688-0.11237,0.07178v-0.23486
				c-0.36137-14.21352-0.00355-0.05444-0.17999-7.26025c-0.06-2.21973-0.12-4.72998,0.67999-6.88965
				c0.98999-2.64014,3.42999-4.93018,6.53003-6.1001c0.73999-0.27979,1.51996-0.5,2.34998-0.66992
				c0,0.06006,0,0.12988,0.01001,0.18994c0,0.04004,0,0.08008,0.01001,0.12012c0.05696,0.90368,0.12521,2.55148,0.10822,3.45654
				C92.77104,69.27657,90.43879,74.46507,86.67474,78.1709z M54.89812,80.61279c0.08875,0.0791,0.17737,0.15771,0.26611,0.23682
				c0.03998,0.03027,0.07996,0.06982,0.12,0.1001c6.37739,5.88364,20.50262,8.69291,30.40997,0.75977
				c0.12-0.08984,0.25-0.18994,0.37-0.29004c0.01001,0,0.01001,0,0.02002-0.00977v-0.01025c0.00012,0,0.00031,0,0.00043-0.00049
				v7.57422c0,8.59766-6.99512,15.59277-15.59326,15.59277S54.89812,97.5708,54.89812,88.97314V80.61279z M100.36419,95.31982
				l1.03003,3.40967c0.46002,1.51025,1.83002,2.61035,3.41998,2.72998l0.28003,0.02002h0.00012l-2.70551,4.54248
				c-1.45947,2.45215-6.05908,9.04688-7.11914,9.79492c-1.97942,1.39884-4.78915,1.27152-7.48926,1.7793
				c-1.23456,0.23682-2.43109,0.64355-3.57623,1.17822v-0.00488c0.01001-0.16016,0.01001-0.31006,0.01001-0.47998
				c0-5.62988-3.41003-10.47998-8.27002-12.58984c-0.00403-0.00195-0.0083-0.00293-0.01233-0.00439
				c6.81079-2.22168,11.78998-8.49121,12.11395-15.95557h4.78839C96.32421,89.73975,99.35424,91.98975,100.36419,95.31982z
				 M105.45916,48.33936v10.63867c0,0.78516-0.49414,1.49805-1.22949,1.77344l-9.35541,3.50342
				c0.00482-0.10205-0.00049-0.20654,0.00323-0.30908c0.00867-0.24365,0.00647-0.48779,0.00769-0.73242
				c0.0162-2.0165,0.00909-0.19191-0.13098-4.19385c-0.01001-0.27002-0.01996-0.54004-0.01996-0.7998
				c-0.08941-4.37783,0.27708-8.90157,1.13196-13.42578c0.03162-0.16699,0.06073-0.33398,0.09369-0.50049
				c0.15997-0.81055,0.33282-1.62109,0.52435-2.43408l0.01196-0.06299c0.14734-0.63135,0.27673-1.31348,0.38605-2.03125
				l0.02197-0.11572c0,0,0-0.00098,0-0.00928l7.94214,7.30371C105.23602,47.30225,105.45916,47.81104,105.45916,48.33936z
				 M67.13421,8.67969c0-2.03027,1.65002-3.68018,3.67999-3.68018c2.03003,0,3.67999,1.6499,3.67999,3.68018
				c0,4.18078,0,13.76495,0,17.87988c0,2.03027-1.64996,3.68994-3.67999,3.68994c-2.02997,0-3.67999-1.65967-3.67999-3.68994
				C67.13421,16.0163,67.13421,19.4494,67.13421,8.67969z M59.98425,12.64941c0-0.43994,0.29999-0.81982,0.70996-0.90967
				c1.47998-0.32031,2.96002-0.56006,4.44-0.74023c0,6.91622,0,11.62168,0,15.56006c0,3.14014,2.54999,5.68994,5.67999,5.68994
				s5.67999-2.5498,5.67999-5.68994c0-6.93606,0-12.94146,0-15.56006c1.48004,0.16992,2.97003,0.41992,4.44,0.74023
				c0.41003,0.08984,0.71002,0.46973,0.71002,0.90967c0,4.10973,0,12.00797,0,14.32031c0,5.96387-4.85089,10.81982-10.81317,10.8291
				c-0.00629,0-0.01154-0.00342-0.01788-0.00342c-0.00616,0-0.01129,0.00342-0.01746,0.00342
				c-5.96143-0.01025-10.81146-4.86572-10.81146-10.8291C59.98425,24.40127,59.98425,16.57148,59.98425,12.64941z
				 M37.55291,58.94189l0.03412-5.90479c0.00146-0.02197,0.01276-0.04053,0.01276-0.06299c0-0.021-0.01074-0.03857-0.01202-0.05957
				l0.02667-4.61133c0.00293-0.52832,0.229-1.03516,0.62012-1.39063l7.10504-6.45898c0.0899,0.40381,0.18134,0.8042,0.26544,1.22168
				c0.0058,0.03174,0.01349,0.0625,0.01917,0.09424c0.04382,0.21924,0.08258,0.44482,0.12421,0.66504
				c0.94772,5.00312,1.42027,10.54312,1.44476,15.33008c0.00116,0.28223,0.00922,0.56982,0.0072,0.84912
				c0,1.69496-0.1059,3.3308-0.1059,4.20264c-0.00061,0.25293,0.00696,0.50342,0.01373,0.75488
				c0.00299,0.10889,0.00177,0.21973,0.00598,0.32813c0,0.00098,0.00037,0.00195,0.00037,0.00293l-8.3429-3.18018
				C38.03777,60.44287,37.54803,59.72705,37.55291,58.94189z M52.93694,89.73975
				c0.32404,7.46533,5.30457,13.73584,12.11688,15.95654c-0.00311,0.00098-0.00647,0.00195-0.00958,0.00342
				c-4.87006,2.10986-8.28003,6.95996-8.28003,12.58984c0,0.31982,0.01001,0.62988,0.03998,0.93994
				c-1.39996-0.77002-2.89996-1.33008-4.45996-1.62988c-2.69-0.50977-5.5-0.37988-7.48004-1.79004
				c-1.04999-0.72998-5.65997-7.33008-7.12-9.79004c-0.54999-0.91016-1.08997-1.81982-1.63-2.73975l-1.19-2
				c1.61614-0.51961,2.68005-2.02862,2.68005-3.67041c0-4.33984,3.51996-7.86963,7.85999-7.86963H52.93694z M31.64422,97.60938
				c0-4.33984,3.52997-7.86963,7.87-7.86963c-2.37,1.81006-3.90997,4.65967-3.90997,7.86963c0,0.52051-0.21002,1-0.60004,1.36035
				c-0.37,0.3501-0.85999,0.54004-1.35999,0.5c-0.08002-0.01025-0.16998-0.01025-0.25-0.01025
				c-0.01001-0.00977-0.03003-0.00977-0.03998-0.00977c-0.20001-0.01025-0.40002-0.02002-0.60004-0.02002
				c-0.52997-0.03027-1.03998-0.0498-1.54999-0.0498C31.49419,98.83984,31.64422,98.22949,31.64422,97.60938z M11.99419,129.93945
				c-12.29782-1.11922-9.16084-24.22009,6.73004-27.8999c0.07001-0.02002,0.14996-0.02979,0.22998-0.0498
				c-2.79999,1.50977-5.08002,3.65967-6.84003,6.47998c-0.04999,0.08008-0.09998,0.1499-0.14996,0.22998
				c-4.15399,6.47526-5.54678,16.60052,0.85999,21.2998C12.54424,129.98975,12.26421,129.96973,11.99419,129.93945z
				 M59.39422,129.99951H18.98425c-8.992,0-10.69962-11.14651-6.26001-18.50977c0.21997-0.45996,0.45996-0.91016,0.71997-1.34033
				c2.42999-4.13965,6.01001-6.7998,10.82001-8.00977c0.25-0.06982,0.5-0.12988,0.76001-0.18018h0.03998
				c0.25-0.06006,0.5-0.10986,0.76001-0.1499c0.5188-0.09937,0.57827-0.10094,1.03998-0.16016
				c1.51141-0.22453,3.80766-0.33333,5.82001-0.22998c0.05005,0.08008,0.09003,0.16016,0.13,0.22998l1.58002,2.65039
				c0.53998,0.91992,1.08002,1.83008,1.63,2.75c0.82001,1.36963,5.40997,8.34961,7.35999,10.12988
				c0.01001,0.00977,0.01001,0,0.01001,0c0.12,0.12012,0.21997,0.2002,0.32001,0.27002c2.27002,1.60986,5.07001,1.62012,7.58002,2
				c0,0,0.00995,0,0.01996,0.00977c0.22003,0.02002,0.44,0.06006,0.66003,0.1001c1.88,0.35986,3.65997,1.14014,5.23999,2.22021
				c0.89996,3.41992,3.08997,6.31982,6.02002,8.12988l-0.07001,0.08984H59.39422z"></path><path fill="#402da3" d="M42.27557 97.604c0 .55273.44775 1 1 1h6.09326c.55225 0 1-.44727 1-1s-.44775-1-1-1h-6.09326C42.72332 96.604 42.27557 97.05127 42.27557 97.604zM49.36883 100.74268h-6.09326c-.55225 0-1 .44727-1 1s.44775 1 1 1h6.09326c.55225 0 1-.44727 1-1S49.92107 100.74268 49.36883 100.74268zM49.36883 104.88037h-6.09326c-.55225 0-1 .44727-1 1s.44775 1 1 1h6.09326c.55225 0 1-.44727 1-1S49.92107 104.88037 49.36883 104.88037zM91.61395 98.604h6.09326c.55225 0 1-.44727 1-1s-.44775-1-1-1h-6.09326c-.55225 0-1 .44727-1 1S91.0617 98.604 91.61395 98.604zM91.61395 102.74268h6.09326c.55225 0 1-.44727 1-1s-.44775-1-1-1h-6.09326c-.55225 0-1 .44727-1 1S91.0617 102.74268 91.61395 102.74268zM91.61395 106.88037h6.09326c.55225 0 1-.44727 1-1s-.44775-1-1-1h-6.09326c-.55225 0-1 .44727-1 1S91.0617 106.88037 91.61395 106.88037zM70.49419 112.78955c-3.02997 0-5.5 2.47021-5.5 5.5 0 3.03027 2.47003 5.49023 5.5 5.49023 3.03003 0 5.5-2.45996 5.5-5.49023C75.99419 115.25977 73.52422 112.78955 70.49419 112.78955zM70.49419 121.77979c-1.92999 0-3.5-1.57031-3.5-3.49023 0-1.93018 1.57001-3.5 3.5-3.5s3.5 1.56982 3.5 3.5C73.99419 120.20947 72.42419 121.77979 70.49419 121.77979zM59.45422 53.99951c2.70001 0 4.89001-2.19971 4.89001-4.8999 0-2.70996-2.19-4.91016-4.89001-4.91016s-4.90002 2.2002-4.90002 4.91016C54.55419 51.7998 56.7542 53.99951 59.45422 53.99951zM59.45422 46.18945c1.59998 0 2.89001 1.30029 2.89001 2.91016 0 1.6001-1.29004 2.8999-2.89001 2.8999s-2.90002-1.2998-2.90002-2.8999C56.55419 47.48975 57.85424 46.18945 59.45422 46.18945zM82.1842 53.99951c2.69 0 4.89001-2.19971 4.89001-4.8999 0-2.70996-2.20001-4.91016-4.89001-4.91016-2.70996 0-4.90997 2.2002-4.90997 4.91016C77.27422 51.7998 79.47424 53.99951 82.1842 53.99951zM82.1842 46.18945c1.59003 0 2.89001 1.30029 2.89001 2.91016 0 1.6001-1.29999 2.8999-2.89001 2.8999-1.59998 0-2.90997-1.2998-2.90997-2.8999C79.27422 47.48975 80.58422 46.18945 82.1842 46.18945zM63.25701 70.76221v3.40527c0 .55273.44775 1 1 1s1-.44727 1-1v-3.40527c0-.55273-.44775-1-1-1S63.25701 70.20947 63.25701 70.76221zM68.7492 75.16748c.55225 0 1-.44727 1-1v-3.40527c0-.55273-.44775-1-1-1s-1 .44727-1 1v3.40527C67.7492 74.72021 68.19695 75.16748 68.7492 75.16748zM73.2409 75.16748c.55225 0 1-.44727 1-1v-3.40527c0-.55273-.44775-1-1-1s-1 .44727-1 1v3.40527C72.2409 74.72021 72.68865 75.16748 73.2409 75.16748zM77.73309 75.16748c.55225 0 1-.44727 1-1v-3.40527c0-.55273-.44775-1-1-1s-1 .44727-1 1v3.40527C76.73309 74.72021 77.18084 75.16748 77.73309 75.16748z"></path><path fill="#fad014" d="M16.85415 10.82856c-.55225 0-1-.44727-1-1V7.24067c0-.55273.44775-1 1-1s1 .44727 1 1v2.58789C17.85415 10.38129 17.4064 10.82856 16.85415 10.82856zM16.85415 22.2475c-.55225 0-1-.44727-1-1v-2.58789c0-.55273.44775-1 1-1s1 .44727 1 1v2.58789C17.85415 21.80024 17.4064 22.2475 16.85415 22.2475zM23.85708 15.2436h-2.5874c-.55225 0-1-.44727-1-1s.44775-1 1-1h2.5874c.55225 0 1 .44727 1 1S24.40933 15.2436 23.85708 15.2436zM12.43814 15.2436H9.85122c-.55225 0-1-.44727-1-1s.44775-1 1-1h2.58691c.55225 0 1 .44727 1 1S12.99039 15.2436 12.43814 15.2436zM19.97622 12.12153c-.25586 0-.51172-.09766-.70703-.29297-.39063-.39063-.39063-1.02344 0-1.41406l1.82959-1.8291c.39063-.39063 1.02344-.39063 1.41406 0s.39063 1.02344 0 1.41406l-1.82959 1.8291C20.48794 12.02387 20.23208 12.12153 19.97622 12.12153zM11.90201 20.19574c-.25586 0-.51172-.09766-.70703-.29297-.39063-.39063-.39063-1.02344 0-1.41406l1.82959-1.8291c.39063-.39063 1.02344-.39063 1.41406 0s.39063 1.02344 0 1.41406l-1.82959 1.8291C12.41372 20.09809 12.15787 20.19574 11.90201 20.19574zM21.80581 20.19574c-.25586 0-.51172-.09766-.70703-.29297l-1.82959-1.8291c-.39063-.39063-.39063-1.02344 0-1.41406s1.02344-.39063 1.41406 0l1.82959 1.8291c.39063.39063.39063 1.02344 0 1.41406C22.31753 20.09809 22.06167 20.19574 21.80581 20.19574zM13.7316 12.12153c-.25586 0-.51172-.09766-.70703-.29297l-1.82959-1.8291c-.39063-.39063-.39063-1.02344 0-1.41406s1.02344-.39063 1.41406 0l1.82959 1.8291c.39063.39063.39063 1.02344 0 1.41406C14.24331 12.02387 13.98746 12.12153 13.7316 12.12153z"></path><path fill="#ed7149" d="M119.29996 13.71039c-.55225 0-1-.44727-1-1V10.1225c0-.55273.44775-1 1-1s1 .44727 1 1v2.58789C120.29996 13.26313 119.8522 13.71039 119.29996 13.71039zM119.29996 25.12836c-.55225 0-1-.44727-1-1v-2.58691c0-.55273.44775-1 1-1s1 .44727 1 1v2.58691C120.29996 24.6811 119.8522 25.12836 119.29996 25.12836zM126.30289 18.12543h-2.5874c-.55225 0-1-.44727-1-1s.44775-1 1-1h2.5874c.55225 0 1 .44727 1 1S126.85513 18.12543 126.30289 18.12543zM114.88443 18.12543h-2.5874c-.55225 0-1-.44727-1-1s.44775-1 1-1h2.5874c.55225 0 1 .44727 1 1S115.43668 18.12543 114.88443 18.12543zM122.42252 15.00336c-.25586 0-.51172-.09766-.70703-.29297-.39063-.39063-.39063-1.02344-.00049-1.41406l1.8291-1.83008c.39063-.39063 1.02393-.39063 1.41455 0s.39063 1.02344.00049 1.41406l-1.8291 1.83008C122.93472 14.90571 122.67838 15.00336 122.42252 15.00336zM114.3483 23.07758c-.25586 0-.51172-.09766-.70703-.29297-.39063-.39063-.39063-1.02344-.00049-1.41406l1.8291-1.83008c.39063-.39063 1.02393-.39063 1.41455 0s.39063 1.02344.00049 1.41406l-1.8291 1.83008C114.8605 22.97992 114.60416 23.07758 114.3483 23.07758zM124.25162 23.07758c-.25586 0-.51221-.09766-.70752-.29297l-1.8291-1.83008c-.39014-.39063-.39014-1.02344.00049-1.41406s1.02393-.39063 1.41455 0l1.8291 1.83008c.39014.39063.39014 1.02344-.00049 1.41406C124.76334 22.97992 124.50748 23.07758 124.25162 23.07758zM116.1774 15.00336c-.25586 0-.51221-.09766-.70752-.29297l-1.8291-1.83008c-.39014-.39063-.39014-1.02344.00049-1.41406s1.02393-.39063 1.41455 0l1.8291 1.83008c.39014.39063.39014 1.02344-.00049 1.41406C116.68912 14.90571 116.43326 15.00336 116.1774 15.00336z"></path><g><path fill="#a2e55a" d="M106.45523,84.51215c-2.88086,0-5.22461-2.34375-5.22461-5.22461
					c0-2.88477,2.34375-5.23242,5.22461-5.23242c2.88525,0,5.23242,2.34766,5.23242,5.23242
					C111.68765,82.1684,109.34048,84.51215,106.45523,84.51215z M106.45523,76.05512c-1.77783,0-3.22461,1.4502-3.22461,3.23242
					c0,1.77832,1.44678,3.22461,3.22461,3.22461c1.78223,0,3.23242-1.44629,3.23242-3.22461
					C109.68765,77.50532,108.23746,76.05512,106.45523,76.05512z"></path></g></svg>