<svg xmlns="http://www.w3.org/2000/svg" viewBox="0 0 69 69" id="ChessKing"><path d="m44.32 16.19-1.67 2.7H26.36l-1.68-2.69a.745.745 0 0 1-.08-.6c.06-.21.2-.38.39-.47l8.76-4.38V6.86h-2.14c-.42 0-.75-.34-.75-.75 0-.42.33-.75.75-.75h2.14V3.5a.749.749 0 1 1 1.5 0v1.86h2.15a.75.75 0 1 1 0 1.5h-2.15v3.89l8.77 4.38c.18.09.32.26.38.47.06.2.03.42-.08.59zm2.03 6.997a2.789 2.789 0 0 1-2.785 2.792H25.447a2.795 2.795 0 0 1-2.792-2.792c0-.766.31-1.468.821-1.97a2.747 2.747 0 0 1 1.97-.822h18.119a2.789 2.789 0 0 1 2.784 2.792zM61.29 65.5c0 .42-.34.75-.75.75H8.46a.749.749 0 1 1 0-1.5h4.45v-.57a4.75 4.75 0 0 1 4.74-4.74h33.71c2.61 0 4.73 2.13 4.73 4.74v.57h4.45c.41 0 .75.34.75.75zm-11.22-7.56H18.93c.06-2.99 2.52-5.41 5.53-5.41h20.08a5.53 5.53 0 0 1 5.53 5.41zm-24.42-6.91c3.01-6.33 3.42-13.64 2.93-23.55h11.84c-.49 9.9-.08 17.22 2.92 23.55H25.65z" fill="#ffffff" class="color000000 svgShape"></path></svg>