<svg xmlns="http://www.w3.org/2000/svg" data-name="Layer 1" viewBox="0 0 70 70" id="Chess"><path d="M21.21 29.1a5 5 0 0 0 6.89-1 22.07 22.07 0 0 1 8-2.85 45.19 45.19 0 0 1-7.56 8.26c-5 4.3-7.16 9.69-6.34 15.44a4.85 4.85 0 0 1 1-.1H46.78a1.42 1.42 0 0 1 .28 0V48.4c0-2.62.76-4 2-6.39a26.48 26.48 0 0 0 1.36-22.38c-2.22-5.48-7.4-12.8-19.51-16.58a1 1 0 0 0-1.09.34 1 1 0 0 0-.05 1.14c1.37 2.22 1.4 3.58.14 5A65.12 65.12 0 0 0 19.66 22.06 5.14 5.14 0 0 0 21.21 29.1zm9.29-14l1-.87a1 1 0 1 1 1.33 1.48l-1 .88a1 1 0 0 1-1.41-.08A1 1 0 0 1 30.5 15.11zM51.22 57.32h-1v-3a3.42 3.42 0 0 0-3.41-3.42H23.22a3.42 3.42 0 0 0-3.41 3.42v3h-1a3.43 3.43 0 0 0-3.43 3.42V66a1 1 0 0 0 1 1h37.3a1 1 0 0 0 1-1V60.74A3.43 3.43 0 0 0 51.22 57.32z" fill="#ffffff" class="color000000 svgShape"></path></svg>