<svg xmlns="http://www.w3.org/2000/svg" fill-rule="evenodd" clip-rule="evenodd" image-rendering="optimizeQuality" shape-rendering="geometricPrecision" text-rendering="geometricPrecision" viewBox="0 0 6.827 6.827" id="Pawn"><g fill="#000000" class="color000000 svgShape"><path fill="#424242" fill-rule="nonzero" d="M3.414.853a.605.605 0 0 1 .54.887.608.608 0 0 1-.02.036h.101a.1.1 0 0 1 .1.1v.3a.1.1 0 0 1-.1.1H2.793a.1.1 0 0 1-.1-.1v-.3a.1.1 0 0 1 .1-.1h.102a.604.604 0 0 1 .09-.745.605.605 0 0 1 .43-.178z" class="color424242 svgShape"></path><path fill="#424242" fill-rule="nonzero" d="M2.992 2.16h.843c.057 0 .104.045.107.102.037.46.123.923.243 1.39.107.413.242.83.396 1.252H2.247c.158-.418.291-.834.396-1.248.119-.471.202-.937.243-1.399l.106.01-.107-.01a.107.107 0 0 1 .107-.097zM4.892 5.973H1.935a.107.107 0 0 1-.107-.106v-.75c0-.059.048-.106.107-.106h2.957c.059 0 .107.047.107.106v.75a.107.107 0 0 1-.107.106z" class="color424242 svgShape"></path></g><path fill="none" d="M0 0h6.827v6.827H0z"></path></svg>