<svg xmlns="http://www.w3.org/2000/svg" viewBox="0 0 71 71" id="ai-robot-process"><circle cx="42.873" cy="38.487" r="24.043" fill="#eef7fe"></circle><circle cx="25.076" cy="49.636" r="17.869" fill="#eef7fe"></circle><circle cx="21.954" cy="21.364" r="17.869" fill="#eef7fe"></circle><path fill="#f4f9fe" d="m48.864 14.126.173 3.215a1.203 1.203 0 0 1-1.134 1.263l-1.268.068-.302-5.611 1.268-.069a1.204 1.204 0 0 1 1.263 1.134zm-26.085 1.988.218 3.21c.044.658.62 1.16 1.278 1.114l1.267-.086-.38-5.602-1.266.087c-.659.045-1.161.62-1.117 1.277z"></path><path fill="#77d3e3" d="M36.474 5.888c.04.625-.446 1.17-1.07 1.2a1.132 1.132 0 0 1-1.2-1.061 1.136 1.136 0 0 1 1.07-1.21c.625-.03 1.16.446 1.2 1.07z"></path><path fill="#9ab7cf" d="m38.298 11.467-5.239.31a2.618 2.618 0 0 1 2.46-2.77 2.62 2.62 0 0 1 2.779 2.46zM33.656 22.809h4.298v3.023h-4.298z"></path><path fill="#b1c6d7" d="M33.656 24.412h4.298v1.42h-4.298z"></path><path fill="#fc938e" d="m14.082 36.58 2.678 9.094-1.012.297-1.854.536-3.233-10.879 8.905-9.292 1.051 1.012 1.21 1.15z"></path><path fill="#f4abab" d="m14.082 36.58 2.678 9.094-1.369.403-3.064-10.344 8.29-8.385 1.21 1.15z"></path><path fill="#fc938e" d="m60.949 35.628-3.233 10.879-1.497-.436-1.369-.397 2.678-9.094-7.745-8.082 1.408-1.349.853-.813z"></path><path fill="#f4abab" d="m59.323 35.628-3.104 10.443-1.369-.397 2.678-9.094-7.745-8.082 1.408-1.349z"></path><path fill="#9ab7cf" d="M58.152 48.629c.238-.67.18-1.379-.104-1.973a2.579 2.579 0 0 0-1.466-1.323l-.009-.003a2.585 2.585 0 0 0-3.195 3.551c.122.257.282.487.48.693l.683-1.926 2.15.763-.683 1.925a2.59 2.59 0 0 0 2.144-1.707z"></path><path fill="#daeff7" d="M15.174 36.099c0 1.377-1.122 2.5-2.49 2.5a2.503 2.503 0 0 1-2.5-2.5 2.501 2.501 0 0 1 2.5-2.49 2.5 2.5 0 0 1 2.49 2.49zm41.262 0c0 1.377 1.122 2.5 2.49 2.5 1.377 0 2.5-1.123 2.5-2.5a2.501 2.501 0 0 0-2.5-2.49 2.5 2.5 0 0 0-2.49 2.49z"></path><path fill="#9ab7cf" d="M52.976 27.715a3.31 3.31 0 0 1-3.302 3.312 3.312 3.312 0 0 1-3.313-3.312 3.303 3.303 0 0 1 3.313-3.303 3.301 3.301 0 0 1 3.302 3.303zm-27.728 0a3.312 3.312 0 0 1-3.312 3.312 3.31 3.31 0 0 1-3.302-3.312 3.301 3.301 0 0 1 3.302-3.303 3.303 3.303 0 0 1 3.312 3.303z"></path><path fill="#fc938e" d="M26.825 51.297h3.144v10.899h-3.144z"></path><path fill="#f4abab" d="M26.825 51.297h1.567v10.899h-1.567z"></path><path fill="#fc938e" d="M41.641 51.297h3.144v10.899h-3.144z"></path><path fill="#f4abab" d="M41.641 51.297h1.577v10.899h-1.577z"></path><path fill="#9ab7cf" d="M32.11 64.813h-7.437c0-.436.05-.863.15-1.27.435-1.943 1.873-3.37 3.57-3.37.594 0 1.15.168 1.645.485 1.23.744 2.073 2.33 2.073 4.155z"></path><path fill="#b1c6d7" d="M30.841 63.544h-6.019c.436-1.944 1.874-3.372 3.57-3.372.595 0 1.15.169 1.646.486.506.794.803 1.795.803 2.886z"></path><path fill="#9ab7cf" d="M46.936 64.813H39.5c0-.456.05-.892.149-1.299.446-1.934 1.884-3.342 3.57-3.342.575 0 1.13.169 1.616.476 1.25.744 2.102 2.33 2.102 4.165z"></path><path fill="#b1c6d7" d="M45.637 63.514h-5.99c.447-1.934 1.885-3.342 3.57-3.342.576 0 1.131.169 1.617.476.506.794.803 1.775.803 2.866zm-5.914-15.043h6.987a3.488 3.488 0 0 1-3.493 3.494 3.488 3.488 0 0 1-3.494-3.494zm-14.823 0h6.988c0 1.934-1.56 3.494-3.494 3.494S24.9 50.405 24.9 48.47z"></path><path fill="#9ab7cf" d="M46.452 49.781c.164-.405.258-.845.258-1.31h-6.987c0 .465.094.905.258 1.31h6.471zm-14.822 0c.163-.405.258-.845.258-1.31H24.9c0 .465.095.905.258 1.31h6.472z"></path><path fill="#f4f9fe" d="M51.002 30.392V43.91a4.562 4.562 0 0 1-4.561 4.561H25.169a4.568 4.568 0 0 1-4.056-2.469 4.498 4.498 0 0 1-.506-2.092V30.392a4.562 4.562 0 0 1 4.562-4.562h21.272c.753 0 1.457.189 2.082.516a4.52 4.52 0 0 1 2.48 4.046z"></path><path fill="#fff" d="M49.039 28.429v13.516a4.562 4.562 0 0 1-4.562 4.562H23.196A4.458 4.458 0 0 1 21.113 46a4.498 4.498 0 0 1-.506-2.092V30.392a4.562 4.562 0 0 1 4.562-4.562h21.272c.753 0 1.457.189 2.082.516.327.625.516 1.329.516 2.083z"></path><path fill="#9ab7cf" d="M13.458 48.629a2.579 2.579 0 0 1 .103-1.973 2.579 2.579 0 0 1 1.467-1.323l.009-.003a2.585 2.585 0 0 1 3.194 3.551 2.615 2.615 0 0 1-.48.693l-.683-1.926-2.149.763.683 1.925a2.59 2.59 0 0 1-2.144-1.707z"></path><path fill="#f4f9fe" d="M46.867 19.692a2.853 2.853 0 0 1-2.687 3.015l-15.699.932a2.83 2.83 0 0 1-2.846-1.874 2.765 2.765 0 0 1-.168-.804l-.387-6.565a2.86 2.86 0 0 1 2.677-3.024l15.699-.923c.406-.03.793.04 1.15.17a2.873 2.873 0 0 1 1.874 2.508l.387 6.565z"></path><path fill="#fff" d="M45.161 17.986a2.86 2.86 0 0 1-2.677 3.025l-15.698.932c-.407.02-.794-.04-1.15-.178a2.765 2.765 0 0 1-.17-.804l-.386-6.565a2.86 2.86 0 0 1 2.677-3.024l15.699-.923c.406-.03.793.04 1.15.17.09.257.149.525.169.812l.386 6.555z"></path><path fill="#77d3e3" d="M32.915 17.224a1.92 1.92 0 0 1-1.807 2.035 1.92 1.92 0 0 1-2.036-1.807 1.92 1.92 0 0 1 1.808-2.036 1.92 1.92 0 0 1 2.035 1.808zm9.954-.59a1.92 1.92 0 0 1-1.807 2.035 1.92 1.92 0 0 1-2.036-1.807 1.92 1.92 0 0 1 1.808-2.036 1.92 1.92 0 0 1 2.035 1.808z"></path><path fill="#daeff7" d="M41.718 32.848v8.174c0 1.002-.82 1.821-1.821 1.821h-8.184a1.819 1.819 0 0 1-1.748-1.329 1.734 1.734 0 0 1-.073-.492v-8.174c0-1.002.82-1.821 1.82-1.821h8.185c.173 0 .337.027.491.073.765.21 1.33.92 1.33 1.748z"></path><path fill="#e8f1f6" d="M40.461 31.591v8.175c0 1.002-.819 1.82-1.82 1.82h-8.184c-.173 0-.337-.026-.492-.072a1.734 1.734 0 0 1-.073-.492v-8.174c0-1.002.82-1.821 1.82-1.821h8.185c.173 0 .337.027.491.073.046.154.073.318.073.491z"></path><path fill="#a0afc5" d="M17.306 57.768c-1.017 0-1.845-.827-1.845-1.845s.828-1.845 1.845-1.845 1.845.827 1.845 1.845-.828 1.845-1.845 1.845zm0-2.69a.846.846 0 1 0 .002 1.691.846.846 0 0 0-.002-1.69zm41.109-42.44H54.57c-.89 0-1.614-.724-1.614-1.614 0-.55.289-1.062.742-1.352.036-.937.962-1.652 1.877-1.453a1.963 1.963 0 0 1 1.577-.804c1.077 0 1.952.876 1.952 1.952v.007a1.7 1.7 0 0 1 1.017 1.558 1.71 1.71 0 0 1-1.707 1.707zm-3.168-3.454a.549.549 0 0 0-.536.667.5.5 0 0 1-.205.513c-.032.023-.129.084-.166.099a.604.604 0 0 0-.383.561c0 .34.275.615.614.615h3.844c.39 0 .707-.318.707-.707a.698.698 0 0 0-.622-.696.502.502 0 0 1-.424-.64.953.953 0 0 0-.923-1.182.941.941 0 0 0-.885.605.5.5 0 0 1-.727.246.566.566 0 0 0-.294-.081zM20.553 5.024h1v1.097h-1zM20.553 7.915h1v1.097h-1zM21.95 6.518h1.097v1H21.95zM19.06 6.518h1.097v1H19.06zM58.033 22.84h1v1.097h-1zM58.033 25.731h1v1.097h-1zM59.43 24.334h1.097v1H59.43zM56.54 24.334h1.097v1H56.54zM11.403 21.595h1v3.587h-1z"></path><path fill="#a0afc5" d="M10.11 22.889h3.587v1H10.11zM51.806 56.768c-1.017 0-1.845-.827-1.845-1.845s.828-1.845 1.845-1.845v1a.846.846 0 1 0 .845.845h1a1.847 1.847 0 0 1-1.845 1.845z"></path><path fill="#62809e" d="m12.061 42.117.959-.286.429 1.44-.959.286zM55.31 30.462l.72-.693 1.04 1.08-.72.693zM58.929 35.236a.868.868 0 0 0-.865.866c0 .478.39.868.865.868a.87.87 0 0 0 .868-.868.869.869 0 0 0-.868-.866zm-46.255.002c-.47 0-.86.39-.86.86 0 .48.39.87.86.87.48 0 .87-.39.87-.87 0-.47-.39-.86-.87-.86z"></path><path fill="#62809e" d="m59.254 33.128-1.15-1.2-.72.69.61.64c-.71.23-1.3.72-1.66 1.36l-4-4.18c.54-.53.92-1.21 1.06-1.98l.88.91.72-.69-1.59-1.66c-.577-3.19-4.673-4.23-6.71-1.67-.08-.01-.16-.01-.24-.01h-2.04v1h2.04c1.24 0 2.452.588 3.21 1.59a3.99 3.99 0 0 1 .85 2.47v4.51h1v-3.86h.01l4.44 4.63a2.967 2.967 0 0 0 .63 2.3l-2.04 6.93c-.638.213-1.41.887-1.75 1.82-.27.77-.23 1.63.12 2.37.15.3.34.58.57.82.12.13.3.18.47.15.17-.04.31-.16.37-.33l.51-1.45 1.21.43-.52 1.45a.55.55 0 0 0 .08.48c.1.12.24.19.39.19.02 0 .04 0 .06-.01 1.16-.13 2.17-.93 2.56-2.03.329-.95.168-1.964-.279-2.637l2.249-7.563a3.03 3.03 0 0 0 1.33-2.5 2.99 2.99 0 0 0-2.67-2.97zm-8.86-5.89c-.63-.8-1.5-1.4-2.51-1.69a2.814 2.814 0 0 1 3.93.35 2.832 2.832 0 0 1-.17 3.82l-.21-.22c-.156-.867-.573-1.707-1.04-2.26zm7.29 21.22c-.16.45-.47.82-.86 1.07l.34-.95a.506.506 0 0 0-.31-.64l-2.15-.76a.453.453 0 0 0-.16-.03c-.21 0-.4.13-.47.33l-.34.95c-.14-.44-.14-.92.01-1.36.94-2.57 4.837-1.2 3.94 1.39zm-.13-3.159c-.58-.375-1.027-.62-1.89-.62l1.76-5.99a2.932 2.932 0 0 0 1.98.37l-1.85 6.24zm1.37-7.2a2.002 2.002 0 0 1-1.99-2c0-1.094.856-1.93 1.88-1.98.686-.23 2.11.595 2.11 1.98 0 1.097-.903 2-2 2zM26.32 54.705h1v1.5h-1zM44.29 55.995h1v1.5h-1zM20.1 36.405h1v1.5h-1z"></path><path fill="#62809e" d="M50.51 40.905v3.01a4.06 4.06 0 0 1-3.999 4.053h-6.787c-.025 0-.043.004-.062.007h-7.716c-.02-.003-.037-.007-.062-.007h-6.786a4.06 4.06 0 0 1-3.998-4.053v-4.51h-1v4.51c0 2.541 1.889 4.63 4.333 4.986v.017c.14 1.25.86 2.34 1.89 2.96v1.33h1v-.89c.34.1.7.15 1.07.15.37 0 .74-.05 1.08-.15v7.53c-.346-.174-1.346-.267-2.15 0v-.29c0-1.3-1.06-2.35-2.35-2.35-.28 0-.5.22-.5.5 0 .27.22.5.5.5 1.664 0 1.322 2.03 1.35 2.13-.02.02-.05.03-.07.06-1.031.657-2.08 2.346-2.08 4.42 0 .27.22.5.5.5h7.44c.28 0 .5-.23.5-.5 0-.22-.01-.44-.04-.65-.095-1.523-1.062-3.17-2.07-3.79-.01-.02-.02-.02-.03-.03v-8.48a3.947 3.947 0 0 0 1.87-2.89l.001-.003h6.92v.003c.15 1.23.87 2.29 1.88 2.9v8.47c-.01.01-.02.01-.03.03-1.166.75-2.12 2.451-2.12 4.44 0 .27.23.5.5.5h7.44c.28 0 .5-.23.5-.5 0-1.953-.989-3.75-2.11-4.44-.01-.02-.02-.02-.03-.03v-1.35h-1v.85c-.225-.112-.802-.205-1.483-.127-.205.02-.418.058-.637.117-.01 0-.02.01-.03.01v-7.53c.34.1.7.15 1.07.15.38 0 .74-.05 1.08-.15v.63c0 1.13.92 2.05 2.05 2.05v-1c-.58 0-1.05-.47-1.05-1.05v-1.07a3.978 3.978 0 0 0 1.89-2.96l.001-.018c2.44-.36 4.325-2.447 4.325-4.985v-3.01c0-.551.449-1 1-1v-1c-1.103 0-2 .898-2 2zM31.594 64.318h-6.4c.402-4.826 5.965-4.804 6.4 0zm14.82 0h-6.39c.39-4.871 5.995-4.731 6.39 0zm-15.07-15.34a2.997 2.997 0 0 1-2.95 2.49c-1.48 0-2.7-1.07-2.95-2.49v-.003h5.9v.003zm11.87 2.49c-1.48 0-2.7-1.07-2.95-2.49v-.003h5.91v.003a3.007 3.007 0 0 1-2.96 2.49zM41.41 25.335h1.5v1h-1.5zM50.51 36.405h1v1.5h-1z"></path><path fill="#62809e" d="M17.064 44.908h-.01l-2.03-6.94a2.986 2.986 0 0 0 .62-2.28l4.44-4.64.02 2.09c0 .7-.57 1.27-1.27 1.27v1c1.25 0 2.27-1.02 2.27-2.27.156-1.809-.462-3.514.84-5.2a4.056 4.056 0 0 1 3.22-1.6h14.75v-1h-1.46v-1.79l5.75-.34c1.85-.11 3.27-1.7 3.16-3.55l-.03-.523.596-.032a1.702 1.702 0 0 0 1.607-1.79l-.174-3.214a1.702 1.702 0 0 0-1.79-1.606l.055.998a.703.703 0 0 1 .736.662l.174 3.215a.702.702 0 0 1-.661.737l-.603.032-.29-5.039a3.362 3.362 0 0 0-3.55-3.15l-4.96.3c-.46-.973-1.409-1.625-2.49-1.74l-.06-1.03c.24-.08.46-.23.64-.43.29-.33.44-.75.41-1.19-.06-.89-.86-1.58-1.73-1.54-.91.06-1.6.84-1.54 1.74.05.72.56 1.31 1.22 1.47l.07 1.06c-1.06.23-1.91 1-2.26 2l-1.21.07.06 1 .97-.06 6.22-.37 4.72-.28c1.26-.08 2.36.87 2.48 2.13v.002l.4 6.628c.07 1.31-.92 2.42-2.22 2.5-22.802 1.369-8.012.48-15.69.94-1.3.07-2.42-.92-2.5-2.22-.354-7.317-.39-6.546-.39-6.56-.04-.7.23-1.38.74-1.86.74-.69 1.01-1.77.66-2.82l-.92.38c.2.61.03 1.28-.43 1.71-.69.66-1.06 1.56-1.05 2.51l-.71.05c-.9.06-1.58.81-1.58 1.68v.13l.21 3.21c.056.852.774 1.58 1.7 1.58h.11l.65-.05.01.1c.11 1.78 1.6 3.16 3.36 3.16h.2l4.63-.28v1.47h-7.99c-.08 0-.17 0-.25.01-.7-.88-1.78-1.44-2.98-1.44-3.152 0-3.67 3.03-3.73 3.13l-5.84 6.09a3 3 0 0 0-2.68 2.97c0 1.04.54 1.96 1.34 2.5l.61 2.07.96-.28-.39-1.33a2.969 2.969 0 0 0 1.99-.37l1.76 5.99c-.67 0-1.372.203-1.9.62l-.17-.57-.96.29.34 1.14c-.286.514-.46 1.017-.46 1.61 0 .35.06.69.18 1.03.39 1.1 1.4 1.9 2.56 2.03.02.01.04.01.06.01.15 0 .29-.07.39-.19.11-.14.14-.32.08-.48l-.52-1.45 1.21-.43.52 1.45c.05.17.19.29.36.32.17.04.35-.01.47-.14.23-.24.43-.52.57-.82.35-.74.39-1.6.12-2.37a3.089 3.089 0 0 0-1.74-1.82zm18.23-39.59h.03c.34 0 .63.26.65.6.01.17-.05.33-.16.46s-.27.2-.44.21a.623.623 0 0 1-.67-.59c-.02-.36.24-.66.59-.68zm2.05 4.99-3.47.21c.7-1.184 2.49-1.435 3.47-.21zm-13.1 9.63a.701.701 0 0 1-.75-.65l-.22-3.21c-.02-.38.27-.72.66-.74l.7-.06.27 4.62-.66.04zm13.21 3.67v1.72h-3.3v-1.52l3.3-.2zm-13.73 1.94c-1.888.548-3.244 2.186-3.53 3.94l-.23.23c-2.518-2.518 1.03-6.398 3.76-4.17zm-5.51 2.91c.14.77.53 1.45 1.07 1.97l-4.01 4.19a2.95 2.95 0 0 0-1.66-1.36l4.6-4.8zm-5.53 9.64c-.29 0-.57-.06-.82-.18a2.002 2.002 0 0 1-1.18-1.82c0-1.1.9-1.99 2-1.99.04 0 .08 0 .11.01 2.578.13 2.432 3.98-.11 3.98zm5.19 10.33-.33-.95a.505.505 0 0 0-.64-.3c-1.77.67-2.675.703-2.46 1.4l.34.95c-.39-.25-.7-.62-.86-1.07-.853-2.505 2.973-4.03 3.94-1.39.15.44.16.92.01 1.36z"></path><path fill="#62809e" d="m28.52 10.826 1.5-.09.06.998-1.5.09zM28.574 17.478a2.429 2.429 0 0 0 2.42 2.28h.14c.65-.04 1.25-.33 1.67-.81.43-.48.65-1.11.61-1.75a2.42 2.42 0 0 0-2.56-2.28 2.425 2.425 0 0 0-2.28 2.56zm2.34-1.56c.02-.01.05-.01.08-.01.75 0 1.38.59 1.42 1.34.02.39-.1.75-.35 1.04-.26.28-.6.45-.99.47-.78.06-1.46-.55-1.5-1.34-.05-.78.55-1.46 1.34-1.5zm10.18 3.25a2.425 2.425 0 0 0 2.27-2.41v-.15a2.42 2.42 0 0 0-2.56-2.28 2.432 2.432 0 0 0-2.28 2.56c.04.65.33 1.24.81 1.67.45.4 1.01.61 1.61.61h.15zm-1.57-2.34c-.04-.78.56-1.46 1.34-1.5.03-.01.06-.01.09-.01.74 0 1.37.59 1.42 1.34.04.79-.56 1.46-1.34 1.51-.38.03-.75-.1-1.03-.35-.29-.26-.46-.6-.48-.99zm2.69 17.363h1.004a.974.974 0 0 0 .834.483.984.984 0 0 0 0-1.965.98.98 0 0 0-.836.482h-1.002v-.343c0-1.28-1.04-2.32-2.32-2.32h-.342v-1.002a.973.973 0 0 0 .484-.833.984.984 0 0 0-1.966 0c0 .362.2.663.482.836v1h-2.248v-1.003a.974.974 0 0 0 .484-.833.984.984 0 0 0-1.966 0c0 .362.2.663.482.836v1h-2.248v-1.003a.973.973 0 0 0 .483-.833.984.984 0 0 0-1.965 0c0 .362.2.663.482.836v1h-.342c-1.28 0-2.32 1.04-2.32 2.32v.343H28.39a.973.973 0 0 0-.833-.483.984.984 0 0 0 0 1.965.98.98 0 0 0 .836-.482h1v2.249H28.39a.973.973 0 0 0-.833-.484.984.984 0 0 0 0 1.965.98.98 0 0 0 .836-.481h1v2.249h-1.002a.974.974 0 0 0-.834-.485.984.984 0 0 0 0 1.966.98.98 0 0 0 .836-.481h1v.328c0 1.28 1.04 2.32 2.32 2.32h.344v1.015a.974.974 0 0 0-.484.834c0 .532.44.973.992.973a.98.98 0 0 0 .973-.973.98.98 0 0 0-.481-.836v-1.013h2.248v1.015a.974.974 0 0 0-.484.834.984.984 0 0 0 1.966 0 .98.98 0 0 0-.482-.836v-1.013h2.248v1.015a.973.973 0 0 0-.484.834c0 .532.441.973.992.973a.98.98 0 0 0 .974-.973.98.98 0 0 0-.482-.836v-1.013h.34c1.28 0 2.32-1.04 2.32-2.32v-.331h1.004a.974.974 0 0 0 .834.484.984.984 0 0 0 0-1.966.98.98 0 0 0-.836.482h-1.002v-2.248h1.004a.974.974 0 0 0 .834.483.984.984 0 0 0 0-1.965.98.98 0 0 0-.836.482h-1.002V34.19zm-2.32 8.147h-8.18c-.73 0-1.32-.59-1.32-1.32v-8.17c0-.73.59-1.32 1.32-1.32h8.18c.73 0 1.32.59 1.32 1.32v8.17c0 .73-.59 1.32-1.32 1.32z"></path><path fill="#62809e" d="M35.21 33.926c-.147-.389-.788-.389-.935 0l-2.098 5.542a.5.5 0 0 0 .935.353l.608-1.604h2.046l.607 1.604a.5.5 0 0 0 .936-.353l-2.098-5.542zm-1.112 3.29.645-1.701.644 1.702h-1.289zm4.305-2.007a.5.5 0 0 0-.5.5v3.936a.5.5 0 1 0 1 0v-3.936a.5.5 0 0 0-.5-.5zm0-1.625c-.276 0-.5.273-.5.549a.5.5 0 1 0 1 0v-.099c0-.276-.224-.45-.5-.45z"></path></svg>